# xmcd CD database file
#
# Track frame offsets:
#	150
#	39620
#	71574
#	111752
#	149449
#	187368
#
# Disc length: 2920 seconds
#
# Revision: 0
# Processed by: cddbd v1.5PL3 Copyright (c) Steve Scherf et al.
# Submitted via: CDex 1.51
#
DISCID=5d0b6606
DTITLE=Relaxing Dreams Vol 18 - Classic Filmmoves by Orchestra
DYEAR=2000
DGENRE=New Age
TTITLE0=Rosemund
TTITLE1=Valse D'amour
TTITLE2=Wood Romance
TTITLE3=Midnight Athmosphere
TTITLE4=Hills And Dales
TTITLE5=Serenade
EXTD=YEAR: 2000
EXTT0=
EXTT1=
EXTT2=
EXTT3=
EXTT4=
EXTT5=
PLAYORDER=
